<svg width="29" height="24" viewBox="0 0 29 24" fill="none" xmlns="http://www.w3.org/2000/svg">
<path fill-rule="evenodd" clip-rule="evenodd" d="M16.518 6.06011C16.4068 3.66094 14.4269 1.74999 12.0009 1.74999C9.51522 1.73929 7.48716 3.73948 7.46112 6.22433H7.25778C4.49177 6.22433 2.25 8.46483 2.25 11.2293V16.7453C2.25 19.5098 4.49177 21.7503 7.25778 21.7503H16.7422C19.5082 21.7503 21.75 19.5098 21.75 16.7453V11.2293C21.75 8.46483 19.5082 6.22433 16.7422 6.22433H16.5218L16.518 6.06011ZM15.0229 7.72433V9.30503L15.0297 9.4068C15.0794 9.77288 15.3932 10.055 15.7729 10.055C16.1871 10.055 16.5229 9.71924 16.5229 9.30503V7.72433H16.7422C18.68 7.72433 20.25 9.29345 20.25 11.2293V16.7453C20.25 18.6812 18.68 20.2503 16.7422 20.2503H7.25778C5.32 20.2503 3.75 18.6812 3.75 16.7453V11.2293C3.75 9.29345 5.32 7.72433 7.25778 7.72433H7.4609L7.4609 9.30503L7.46775 9.4068C7.51741 9.77288 7.8312 10.055 8.2109 10.055C8.62511 10.055 8.9609 9.71924 8.9609 9.30503V7.72433H15.0229ZM15.0225 6.22433C14.9965 4.57712 13.6535 3.24999 11.9977 3.24999C10.3872 3.24306 9.0656 4.49535 8.9668 6.07878L8.96196 6.22433H15.0225Z" fill="#A6A6A6"/>
<rect x="17" width="12" height="12" rx="6" fill="#F3643F"/>
<path d="M25.736 8.24C25.736 7.536 25.376 7.048 24.656 6.768V6.76C25.288 6.456 25.6 5.976 25.6 5.328C25.6 4.856 25.408 4.464 25.032 4.136C24.656 3.808 24.144 3.648 23.504 3.648C22.44 3.648 21.696 4.224 21.408 5.056L22.264 5.448C22.52 4.848 22.928 4.544 23.488 4.544C24.192 4.544 24.6 4.92 24.6 5.432C24.6 5.688 24.496 5.912 24.28 6.096C24.072 6.28 23.808 6.368 23.488 6.368H22.872V7.256H23.544C23.888 7.256 24.168 7.352 24.384 7.544C24.608 7.728 24.72 7.96 24.72 8.224C24.72 8.48 24.608 8.704 24.376 8.896C24.144 9.08 23.864 9.176 23.528 9.176C22.896 9.176 22.44 8.864 22.168 8.248L21.32 8.664C21.696 9.6 22.424 10.072 23.512 10.072C24.16 10.072 24.688 9.896 25.104 9.544C25.528 9.184 25.736 8.752 25.736 8.24Z" fill="white"/>
</svg>
